<svg width="44" height="44" viewBox="0 0 44 44" fill="none" xmlns="http://www.w3.org/2000/svg">
<path d="M25.125 32.1562C25.125 32.7743 24.9417 33.3785 24.5984 33.8924C24.255 34.4063 23.7669 34.8068 23.1959 35.0434C22.6249 35.2799 21.9965 35.3418 21.3904 35.2212C20.7842 35.1006 20.2273 34.803 19.7903 34.366C19.3533 33.9289 19.0556 33.3721 18.9351 32.7659C18.8145 32.1597 18.8764 31.5314 19.1129 30.9604C19.3494 30.3893 19.7499 29.9013 20.2639 29.5579C20.7778 29.2145 21.3819 29.0312 22 29.0312C22.8288 29.0312 23.6237 29.3605 24.2097 29.9465C24.7958 30.5326 25.125 31.3274 25.125 32.1562ZM43.0938 22C43.0938 26.1719 41.8566 30.2502 39.5388 33.7191C37.221 37.1879 33.9266 39.8915 30.0722 41.4881C26.2179 43.0846 21.9766 43.5023 17.8848 42.6884C13.793 41.8745 10.0345 39.8655 7.08448 36.9155C4.13446 33.9655 2.12548 30.207 1.31157 26.1152C0.497663 22.0234 0.91539 17.7822 2.51193 13.9278C4.10846 10.0734 6.8121 6.779 10.2809 4.46119C13.7498 2.14338 17.8281 0.90625 22 0.90625C27.5925 0.912454 32.9542 3.13682 36.9087 7.09132C40.8632 11.0458 43.0876 16.4075 43.0938 22ZM38.4063 22C38.4063 18.7552 37.444 15.5832 35.6413 12.8852C33.8386 10.1872 31.2763 8.08435 28.2784 6.8426C25.2806 5.60085 21.9818 5.27595 18.7993 5.90899C15.6168 6.54203 12.6935 8.10457 10.399 10.399C8.10458 12.6935 6.54204 15.6168 5.909 18.7993C5.27596 21.9818 5.60086 25.2805 6.84261 28.2784C8.08436 31.2762 10.1872 33.8386 12.8852 35.6413C15.5832 37.444 18.7552 38.4062 22 38.4062C26.3498 38.4016 30.5201 36.6716 33.5958 33.5958C36.6716 30.5201 38.4016 26.3498 38.4063 22ZM22 9.5C17.2617 9.5 13.4063 13.0039 13.4063 17.3125V18.0938C13.4063 18.7154 13.6532 19.3115 14.0927 19.751C14.5323 20.1906 15.1284 20.4375 15.75 20.4375C16.3716 20.4375 16.9678 20.1906 17.4073 19.751C17.8468 19.3115 18.0938 18.7154 18.0938 18.0938V17.3125C18.0938 15.5898 19.8516 14.1875 22 14.1875C24.1484 14.1875 25.9063 15.5898 25.9063 17.3125C25.9063 19.0352 24.1484 20.4375 22 20.4375C21.3784 20.4375 20.7823 20.6844 20.3427 21.124C19.9032 21.5635 19.6563 22.1596 19.6563 22.7812V24.3438C19.6549 24.9228 19.8679 25.4819 20.2542 25.9132C20.6406 26.3445 21.1729 26.6175 21.7486 26.6796C22.3243 26.7417 22.9026 26.5885 23.3721 26.2495C23.8415 25.9105 24.1689 25.4098 24.291 24.8438C27.9199 23.9297 30.5938 20.9004 30.5938 17.3125C30.5938 13.0039 26.7383 9.5 22 9.5Z" fill="#F24E1E"/>
</svg>
