<svg width="33" height="32" viewBox="0 0 33 32" fill="none" xmlns="http://www.w3.org/2000/svg">
<path d="M30.3801 13.7343H7.10926L17.2759 3.56759C18.0884 2.75509 18.0884 1.42176 17.2759 0.609258C17.0832 0.416125 16.8543 0.262901 16.6022 0.158357C16.3502 0.0538119 16.08 0 15.8072 0C15.5343 0 15.2642 0.0538119 15.0121 0.158357C14.7601 0.262901 14.5312 0.416125 14.3384 0.609258L0.609259 14.3384C0.416126 14.5312 0.262902 14.7601 0.158358 15.0121C0.0538129 15.2642 0 15.5343 0 15.8072C0 16.08 0.0538129 16.3502 0.158358 16.6022C0.262902 16.8543 0.416126 17.0832 0.609259 17.2759L14.3384 31.0051C14.5313 31.198 14.7603 31.351 15.0123 31.4554C15.2643 31.5597 15.5344 31.6135 15.8072 31.6135C16.0799 31.6135 16.35 31.5597 16.6021 31.4554C16.8541 31.351 17.083 31.198 17.2759 31.0051C17.4688 30.8122 17.6218 30.5832 17.7262 30.3312C17.8306 30.0792 17.8843 29.8091 17.8843 29.5363C17.8843 29.2636 17.8306 28.9935 17.7262 28.7415C17.6218 28.4895 17.4688 28.2605 17.2759 28.0676L7.10926 17.9009H30.3801C31.5259 17.9009 32.4634 16.9634 32.4634 15.8176C32.4634 14.6718 31.5259 13.7343 30.3801 13.7343Z" fill="#F60F0F"/>
</svg>
