<svg width="175" height="200" viewBox="0 0 175 200" fill="none" xmlns="http://www.w3.org/2000/svg">
<path fill-rule="evenodd" clip-rule="evenodd" d="M59.375 37.5V18.75H115.625V37.5H59.375ZM40.625 37.5V12.5C40.625 9.18479 41.942 6.00537 44.2862 3.66117C46.6304 1.31696 49.8098 0 53.125 0L121.875 0C125.19 0 128.37 1.31696 130.714 3.66117C133.058 6.00537 134.375 9.18479 134.375 12.5V37.5H165.625C168.111 37.5 170.496 38.4877 172.254 40.2459C174.012 42.004 175 44.3886 175 46.875C175 49.3614 174.012 51.746 172.254 53.5041C170.496 55.2623 168.111 56.25 165.625 56.25H161.063L151.775 176.912C151.293 183.193 148.458 189.06 143.837 193.341C139.216 197.621 133.149 200 126.85 200H48.15C41.851 200 35.7842 197.621 31.1631 193.341C26.5419 189.06 23.7069 183.193 23.225 176.912L13.9375 56.25H9.375C6.8886 56.25 4.50403 55.2623 2.74587 53.5041C0.987721 51.746 0 49.3614 0 46.875C0 44.3886 0.987721 42.004 2.74587 40.2459C4.50403 38.4877 6.8886 37.5 9.375 37.5H40.625ZM32.75 56.25H142.25L133.075 175.475C132.955 177.045 132.248 178.511 131.094 179.582C129.94 180.653 128.424 181.248 126.85 181.25H48.15C46.5758 181.248 45.0603 180.653 43.9062 179.582C42.7522 178.511 42.0446 177.045 41.925 175.475L32.75 56.25Z" fill="#F24E1E"/>
</svg>
