<svg width="30" height="30" viewBox="0 0 30 30" fill="none" xmlns="http://www.w3.org/2000/svg">
<path d="M20.1875 2.5718e-07C18.6943 -0.000342184 17.2217 0.349101 15.8878 1.02033C14.5539 1.69156 13.3958 2.6659 12.5063 3.86529C11.6168 5.06467 11.0206 6.45574 10.7655 7.92703C10.5104 9.39832 10.6034 10.9089 11.0372 12.3378L0 23.375V29.75H6.375L17.4123 18.7127C18.7275 19.112 20.1134 19.223 21.4755 19.0382C22.8375 18.8534 24.1437 18.3771 25.305 17.6418C26.4664 16.9065 27.4555 15.9295 28.2051 14.7774C28.9547 13.6252 29.4471 12.325 29.6488 10.9654C29.8504 9.60569 29.7566 8.21854 29.3736 6.89843C28.9907 5.57832 28.3277 4.35629 27.4297 3.3156C26.5318 2.27491 25.42 1.44003 24.1703 0.867861C22.9205 0.295693 21.562 -0.00031851 20.1875 2.5718e-07ZM20.1875 17C19.456 16.9996 18.7285 16.8915 18.0285 16.6791L16.8098 16.3094L15.9099 17.2093L12.5301 20.5891L11.0649 19.125L9.5625 20.6274L11.0277 22.0926L9.34256 23.7777L7.87737 22.3125L6.375 23.8149L7.84019 25.2801L5.49525 27.625H2.125V24.2547L12.5396 13.8401L13.4406 12.9402L13.0709 11.7215C12.6167 10.2244 12.6462 8.62228 13.1552 7.14294C13.6641 5.6636 14.6266 4.38242 15.9057 3.48163C17.1847 2.58084 18.7153 2.10632 20.2796 2.12556C21.8439 2.14481 23.3623 2.65684 24.6189 3.58883C25.8754 4.52081 26.8061 5.82529 27.2784 7.3167C27.7508 8.80811 27.7409 10.4105 27.2501 11.8959C26.7593 13.3814 25.8125 14.6742 24.5446 15.5906C23.2766 16.5069 21.7519 17.0001 20.1875 17Z" fill="black"/>
</svg>
