<svg width="27" height="31" viewBox="0 0 27 31" fill="none" xmlns="http://www.w3.org/2000/svg">
<path d="M13.3738 15.1667C17.2858 15.1667 20.4571 11.9953 20.4571 8.08333C20.4571 4.17132 17.2858 1 13.3738 1C9.46178 1 6.29047 4.17132 6.29047 8.08333C6.29047 11.9953 9.46178 15.1667 13.3738 15.1667Z" stroke="black" stroke-width="2"/>
<path d="M20.4571 18H20.9558C21.9915 18.0003 22.9914 18.3788 23.7677 19.0643C24.5441 19.7499 25.0434 20.6953 25.1718 21.723L25.7257 26.1487C25.7755 26.5474 25.74 26.9521 25.6214 27.336C25.5029 27.7199 25.304 28.0742 25.0381 28.3754C24.7721 28.6766 24.4452 28.9177 24.0789 29.0829C23.7126 29.2481 23.3154 29.3334 22.9136 29.3333H3.83395C3.43216 29.3334 3.03494 29.2481 2.66867 29.0829C2.30239 28.9177 1.97543 28.6766 1.70948 28.3754C1.44354 28.0742 1.24469 27.7199 1.12614 27.336C1.00759 26.9521 0.972045 26.5474 1.02187 26.1487L1.57437 21.723C1.70285 20.6948 2.20254 19.749 2.97946 19.0634C3.75639 18.3778 4.75702 17.9996 5.7932 18H6.29045" stroke="black" stroke-width="2" stroke-linecap="round" stroke-linejoin="round"/>
</svg>
